<?xml version="1.0" encoding="utf-8"?>
<!-- Generator: Adobe Illustrator 21.0.0, SVG Export Plug-In . SVG Version: 6.00 Build 0)  -->
<svg version="1.1" id="Layer_1" xmlns="http://www.w3.org/2000/svg" xmlns:xlink="http://www.w3.org/1999/xlink" x="0px" y="0px"
	 viewBox="0 0 216.1 216.1" style="enable-background:new 0 0 216.1 216.1;" xml:space="preserve">
<style type="text/css">
	.st0{fill:#FFFFFF;}
	.st1{fill:none;stroke:#000000;stroke-width:0.118;stroke-linecap:round;stroke-linejoin:round;}
</style>
<path class="st0" d="M216.1,108.1c0,59.6-48.4,108-108,108s-108-48.4-108-108c0-59.6,48.4-108,108-108S216.1,48.4,216.1,108.1"/>
<path class="st1" d="M216.1,108.1c0,59.6-48.4,108-108,108s-108-48.4-108-108c0-59.6,48.4-108,108-108S216.1,48.4,216.1,108.1"/>
<path class="st0" d="M109.6,13.4c0,1.2-1,2.2-2.3,2.2c-1.3,0-2.3-1-2.3-2.2c0-1.2,1-2.2,2.3-2.2C108.6,11.2,109.6,12.2,109.6,13.4"
	/>
<path class="st1" d="M109.6,13.4c0,1.2-1,2.2-2.3,2.2c-1.3,0-2.3-1-2.3-2.2c0-1.2,1-2.2,2.3-2.2C108.6,11.2,109.6,12.2,109.6,13.4"
	/>
<path class="st1" d="M111.5,108.1c0,1.9-1.5,3.4-3.4,3.4c-1.9,0-3.4-1.5-3.4-3.4c0-1.9,1.5-3.4,3.4-3.4
	C109.9,104.6,111.5,106.2,111.5,108.1"/>
<path class="st0" d="M108.9,49.2c0,1.2-1,2.2-2.3,2.2c-1.3,0-2.3-1-2.3-2.2c0-1.2,1-2.2,2.3-2.2C107.9,47,108.9,48,108.9,49.2"/>
<path class="st1" d="M108.9,49.2c0,1.2-1,2.2-2.3,2.2c-1.3,0-2.3-1-2.3-2.2c0-1.2,1-2.2,2.3-2.2C107.9,47,108.9,48,108.9,49.2"/>
</svg>
