<?xml version="1.0" encoding="utf-8"?>
<!-- Generator: Adobe Illustrator 21.0.0, SVG Export Plug-In . SVG Version: 6.00 Build 0)  -->
<svg version="1.1" id="Layer_1" xmlns="http://www.w3.org/2000/svg" xmlns:xlink="http://www.w3.org/1999/xlink" x="0px" y="0px"
	 viewBox="0 0 216.1 216.1" style="enable-background:new 0 0 216.1 216.1;" xml:space="preserve">
<style type="text/css">
	.st0{fill:none;stroke:#000000;stroke-width:0.118;stroke-linecap:round;stroke-linejoin:round;}
</style>
<path class="st0" d="M105.8,77.9c0,0.3,0.1,0.6,0.2,0.9c0.1,0.3,0.3,0.5,0.5,0.7c0.2,0.2,0.4,0.4,0.7,0.5c0.3,0.1,0.6,0.2,0.9,0.2
	c0.3,0,0.6-0.1,0.9-0.2c0.3-0.1,0.5-0.3,0.7-0.5c0.2-0.2,0.4-0.4,0.5-0.7c0.1-0.3,0.2-0.6,0.2-0.9l0,0c0-0.3-0.1-0.6-0.2-0.8
	c-0.1-0.3-0.2-0.5-0.5-0.8c-0.2-0.2-0.4-0.4-0.7-0.5c-0.3-0.1-0.6-0.2-0.9-0.2c-0.3,0-0.6,0.1-0.9,0.2c-0.3,0.1-0.5,0.3-0.7,0.5
	c-0.2,0.2-0.4,0.5-0.5,0.8C105.9,77.4,105.8,77.7,105.8,77.9L105.8,77.9"/>
<path class="st0" d="M105.8,12.9c0,0.3,0.1,0.6,0.2,0.9c0.1,0.3,0.3,0.5,0.5,0.7c0.2,0.2,0.4,0.4,0.7,0.5c0.3,0.1,0.6,0.1,0.9,0.1
	c0.3,0,0.6,0,0.9-0.1c0.3-0.1,0.5-0.3,0.7-0.5c0.2-0.2,0.4-0.4,0.5-0.7c0.1-0.3,0.2-0.6,0.2-0.9l0,0c0-0.3-0.1-0.6-0.2-0.8
	c-0.1-0.3-0.2-0.5-0.5-0.8c-0.2-0.2-0.4-0.4-0.7-0.5c-0.3-0.1-0.6-0.2-0.9-0.2c-0.3,0-0.6,0.1-0.9,0.2c-0.3,0.1-0.5,0.3-0.7,0.5
	c-0.2,0.2-0.4,0.5-0.5,0.8C105.9,12.4,105.8,12.7,105.8,12.9L105.8,12.9"/>
<ellipse transform="matrix(0.718 -0.696 0.696 0.718 -2.442853e-02 5.770356e-02)" class="st0" cx="0.1" cy="0.1" rx="1.1" ry="1.1"/>
<ellipse transform="matrix(0.718 -0.696 0.696 0.718 -150.3435 60.9102)" class="st0" cx="0" cy="216" rx="1.1" ry="1.1"/>
<ellipse transform="matrix(0.718 -0.696 0.696 0.718 60.9102 150.3435)" class="st0" cx="216" cy="0" rx="1.1" ry="1.1"/>
<ellipse transform="matrix(0.718 -0.696 0.696 0.718 -89.4333 211.2537)" class="st0" cx="216" cy="216" rx="1.1" ry="1.1"/>
</svg>
