<?xml version="1.0" encoding="utf-8"?>
<!-- Generator: Adobe Illustrator 21.0.0, SVG Export Plug-In . SVG Version: 6.00 Build 0)  -->
<svg version="1.1" id="Layer_1" xmlns="http://www.w3.org/2000/svg" xmlns:xlink="http://www.w3.org/1999/xlink" x="0px" y="0px"
	 viewBox="0 0 216 216" style="enable-background:new 0 0 216 216;" xml:space="preserve">
<style type="text/css">
	.st0{fill:#FFFFFF;}
</style>
<g>
	<g>
		<path class="st0" d="M108,215.5C48.7,215.5,0.5,167.3,0.5,108S48.7,0.5,108,0.5c59.3,0,107.5,48.2,107.5,107.5
			S167.3,215.5,108,215.5z"/>
		<path d="M108,1c28.6,0,55.5,11.1,75.7,31.3C203.9,52.5,215,79.4,215,108s-11.1,55.5-31.3,75.7C163.5,203.9,136.6,215,108,215
			s-55.5-11.1-75.7-31.3S1,136.6,1,108s11.1-55.5,31.3-75.7C52.5,12.1,79.4,1,108,1 M108,0C48.4,0,0,48.4,0,108s48.4,108,108,108
			s108-48.4,108-108S167.6,0,108,0L108,0z"/>
	</g>
	<g>
		<circle class="st0" cx="110" cy="40" r="1.8"/>
		<path d="M110,38.8c0.7,0,1.2,0.6,1.2,1.2s-0.6,1.2-1.2,1.2s-1.2-0.6-1.2-1.2S109.3,38.8,110,38.8 M110,37.8c-1.2,0-2.2,1-2.2,2.2
			s1,2.2,2.2,2.2s2.2-1,2.2-2.2S111.2,37.8,110,37.8L110,37.8z"/>
	</g>
</g>
</svg>
