<?xml version="1.0" encoding="utf-8"?>
<!-- Generator: Adobe Illustrator 21.0.0, SVG Export Plug-In . SVG Version: 6.00 Build 0)  -->
<svg version="1.1" id="Layer_1" xmlns="http://www.w3.org/2000/svg" xmlns:xlink="http://www.w3.org/1999/xlink" x="0px" y="0px"
	 viewBox="0 0 209.6 209.6" style="enable-background:new 0 0 209.6 209.6;" xml:space="preserve">
<style type="text/css">
	.st0{fill:#FFFFFF;stroke:#000000;stroke-width:1.000000e-02;stroke-miterlimit:10;}
</style>
<g>
	<circle class="st0" cx="104.8" cy="2.8" r="2.2"/>
	<circle class="st0" cx="104.8" cy="16.8" r="2.2"/>
	<circle class="st0" cx="104.8" cy="30.8" r="2.2"/>
	<ellipse transform="matrix(0.9945 -0.1045 0.1045 0.9945 -2.7249 10.3182)" class="st0" cx="97.1" cy="31.2" rx="2.2" ry="2.2"/>
	<ellipse transform="matrix(0.9781 -0.2079 0.2079 0.9781 -4.7757 19.2991)" class="st0" cx="89.4" cy="32.4" rx="2.2" ry="2.2"/>
	<ellipse transform="matrix(0.9511 -0.309 0.309 0.9511 -6.6125 27.001)" class="st0" cx="81.9" cy="34.4" rx="2.2" ry="2.2"/>
	<ellipse transform="matrix(0.9135 -0.4067 0.4067 0.9135 -8.6542 33.593)" class="st0" cx="74.7" cy="37.2" rx="2.2" ry="2.2"/>
	<ellipse transform="matrix(0.866 -0.5 0.5 0.866 -11.2553 39.3423)" class="st0" cx="67.8" cy="40.7" rx="2.2" ry="2.2"/>
	<ellipse transform="matrix(0.809 -0.5878 0.5878 0.809 -14.6854 44.596)" class="st0" cx="61.3" cy="44.9" rx="2.2" ry="2.2"/>
	<ellipse transform="matrix(0.7431 -0.6691 0.6691 0.7431 -19.1132 49.7601)" class="st0" cx="55.3" cy="49.8" rx="2.2" ry="2.2"/>
	<ellipse transform="matrix(0.6691 -0.7431 0.7431 0.6691 -24.5955 55.2738)" class="st0" cx="49.8" cy="55.3" rx="2.2" ry="2.2"/>
	<ellipse transform="matrix(0.5878 -0.809 0.809 0.5878 -31.0725 61.584)" class="st0" cx="44.9" cy="61.3" rx="2.2" ry="2.2"/>
	<ellipse transform="matrix(0.5 -0.866 0.866 0.5 -38.3675 69.1175)" class="st0" cx="40.7" cy="67.8" rx="2.2" ry="2.2"/>
	<ellipse transform="matrix(0.4067 -0.9135 0.9135 0.4067 -46.1945 78.2551)" class="st0" cx="37.2" cy="74.7" rx="2.2" ry="2.2"/>
	<ellipse transform="matrix(0.309 -0.9511 0.9511 0.309 -54.1697 89.3069)" class="st0" cx="34.4" cy="81.9" rx="2.2" ry="2.2"/>
	<ellipse transform="matrix(0.2079 -0.9781 0.9781 0.2079 -61.8287 102.4911)" class="st0" cx="32.4" cy="89.4" rx="2.2" ry="2.2"/>
	<ellipse transform="matrix(0.1045 -0.9945 0.9945 0.1045 -68.6484 117.9169)" class="st0" cx="31.2" cy="97.1" rx="2.2" ry="2.2"/>
	<circle class="st0" cx="30.8" cy="104.8" r="2.2"/>
	<ellipse transform="matrix(0.9945 -0.1045 0.1045 0.9945 -11.5955 3.8733)" class="st0" cx="31.2" cy="112.6" rx="2.2" ry="2.2"/>
	<ellipse transform="matrix(0.9781 -0.2079 0.2079 0.9781 -24.2883 9.357)" class="st0" cx="32.4" cy="120.2" rx="2.2" ry="2.2"/>
	<ellipse transform="matrix(0.9511 -0.309 0.309 0.9511 -37.7826 16.8732)" class="st0" cx="34.4" cy="127.7" rx="2.2" ry="2.2"/>
	<ellipse transform="matrix(0.9135 -0.4067 0.4067 0.9135 -51.6769 26.7789)" class="st0" cx="37.2" cy="134.9" rx="2.2" ry="2.2"/>
	<ellipse transform="matrix(0.866 -0.5 0.5 0.866 -65.4798 39.3423)" class="st0" cx="40.7" cy="141.9" rx="2.2" ry="2.2"/>
	<ellipse transform="matrix(0.809 -0.5878 0.5878 0.809 -78.6296 54.7238)" class="st0" cx="44.9" cy="148.4" rx="2.2" ry="2.2"/>
	<ellipse transform="matrix(0.7431 -0.6691 0.6691 0.7431 -90.5191 72.9613)" class="st0" cx="49.8" cy="154.4" rx="2.2" ry="2.2"/>
	<ellipse transform="matrix(0.6691 -0.7431 0.7431 0.6691 -100.522 93.9603)" class="st0" cx="55.3" cy="159.9" rx="2.2" ry="2.2"/>
	<ellipse transform="matrix(0.5878 -0.809 0.809 0.5878 -108.0215 117.4908)" class="st0" cx="61.3" cy="164.7" rx="2.2" ry="2.2"/>
	<ellipse transform="matrix(0.5 -0.866 0.866 0.5 -112.4395 143.1895)" class="st0" cx="67.8" cy="169" rx="2.2" ry="2.2"/>
	
		<ellipse transform="matrix(0.4067 -0.9135 0.9135 0.4067 -113.2643 170.5686)" class="st0" cx="74.7" cy="172.5" rx="2.2" ry="2.2"/>
	<ellipse transform="matrix(0.309 -0.9511 0.9511 0.309 -110.0764 199.0301)" class="st0" cx="81.9" cy="175.3" rx="2.2" ry="2.2"/>
	
		<ellipse transform="matrix(0.2079 -0.9781 0.9781 0.2079 -102.5717 227.8852)" class="st0" cx="89.4" cy="177.3" rx="2.2" ry="2.2"/>
	
		<ellipse transform="matrix(0.1045 -0.9945 0.9945 0.1045 -90.5786 256.3787)" class="st0" cx="97.1" cy="178.5" rx="2.2" ry="2.2"/>
	<circle class="st0" cx="104.8" cy="178.9" r="2.2"/>
	<ellipse transform="matrix(0.9945 -0.1045 0.1045 0.9945 -18.0405 12.744)" class="st0" cx="112.6" cy="178.5" rx="2.2" ry="2.2"/>
	
		<ellipse transform="matrix(0.9781 -0.2079 0.2079 0.9781 -34.2305 28.8695)" class="st0" cx="120.2" cy="177.3" rx="2.2" ry="2.2"/>
	<ellipse transform="matrix(0.9511 -0.309 0.309 0.9511 -47.9103 48.0433)" class="st0" cx="127.7" cy="175.3" rx="2.2" ry="2.2"/>
	<ellipse transform="matrix(0.9135 -0.4067 0.4067 0.9135 -58.491 69.8016)" class="st0" cx="134.9" cy="172.5" rx="2.2" ry="2.2"/>
	<ellipse transform="matrix(0.866 -0.5 0.5 0.866 -65.4798 93.5667)" class="st0" cx="141.9" cy="169" rx="2.2" ry="2.2"/>
	<ellipse transform="matrix(0.809 -0.5878 0.5878 0.809 -68.5018 118.668)" class="st0" cx="148.4" cy="164.7" rx="2.2" ry="2.2"/>
	
		<ellipse transform="matrix(0.7431 -0.6691 0.6691 0.7431 -67.3179 144.3673)" class="st0" cx="154.4" cy="159.9" rx="2.2" ry="2.2"/>
	
		<ellipse transform="matrix(0.6691 -0.7431 0.7431 0.6691 -61.8355 169.8868)" class="st0" cx="159.9" cy="154.4" rx="2.2" ry="2.2"/>
	<ellipse transform="matrix(0.5878 -0.809 0.809 0.5878 -52.1148 194.4399)" class="st0" cx="164.7" cy="148.4" rx="2.2" ry="2.2"/>
	<ellipse transform="matrix(0.5 -0.866 0.866 0.5 -38.3675 217.2615)" class="st0" cx="169" cy="141.9" rx="2.2" ry="2.2"/>
	
		<ellipse transform="matrix(0.4067 -0.9135 0.9135 0.4067 -20.9507 237.6384)" class="st0" cx="172.5" cy="134.9" rx="2.2" ry="2.2"/>
	<ellipse transform="matrix(0.309 -0.9511 0.9511 0.309 -0.3532 254.9369)" class="st0" cx="175.3" cy="127.7" rx="2.2" ry="2.2"/>
	
		<ellipse transform="matrix(0.2079 -0.9781 0.9781 0.2079 22.8224 268.6282)" class="st0" cx="177.3" cy="120.2" rx="2.2" ry="2.2"/>
	
		<ellipse transform="matrix(0.1045 -0.9945 0.9945 0.1045 47.8831 278.3089)" class="st0" cx="178.5" cy="112.6" rx="2.2" ry="2.2"/>
	<circle class="st0" cx="178.9" cy="104.8" r="2.2"/>
	<ellipse transform="matrix(0.9945 -0.1045 0.1045 0.9945 -9.1698 19.1889)" class="st0" cx="178.5" cy="97.1" rx="2.2" ry="2.2"/>
	<ellipse transform="matrix(0.9781 -0.2079 0.2079 0.9781 -14.7179 38.8117)" class="st0" cx="177.3" cy="89.4" rx="2.2" ry="2.2"/>
	<ellipse transform="matrix(0.9511 -0.309 0.309 0.9511 -16.7403 58.1711)" class="st0" cx="175.3" cy="81.9" rx="2.2" ry="2.2"/>
	<ellipse transform="matrix(0.9135 -0.4067 0.4067 0.9135 -15.4683 76.6157)" class="st0" cx="172.5" cy="74.7" rx="2.2" ry="2.2"/>
	<ellipse transform="matrix(0.866 -0.5 0.5 0.866 -11.2553 93.5667)" class="st0" cx="169" cy="67.8" rx="2.2" ry="2.2"/>
	<ellipse transform="matrix(0.809 -0.5878 0.5878 0.809 -4.5576 108.5403)" class="st0" cx="164.7" cy="61.3" rx="2.2" ry="2.2"/>
	<ellipse transform="matrix(0.7431 -0.6691 0.6691 0.7431 4.0881 121.1661)" class="st0" cx="159.9" cy="55.3" rx="2.2" ry="2.2"/>
	<ellipse transform="matrix(0.6691 -0.7431 0.7431 0.6691 14.0909 131.2003)" class="st0" cx="154.4" cy="49.8" rx="2.2" ry="2.2"/>
	<ellipse transform="matrix(0.5878 -0.809 0.809 0.5878 24.8343 138.5331)" class="st0" cx="148.4" cy="44.9" rx="2.2" ry="2.2"/>
	<ellipse transform="matrix(0.5 -0.866 0.866 0.5 35.7045 143.1895)" class="st0" cx="141.9" cy="40.7" rx="2.2" ry="2.2"/>
	<ellipse transform="matrix(0.4067 -0.9135 0.9135 0.4067 46.119 145.3248)" class="st0" cx="134.9" cy="37.2" rx="2.2" ry="2.2"/>
	<ellipse transform="matrix(0.309 -0.9511 0.9511 0.309 55.5536 145.2136)" class="st0" cx="127.7" cy="34.4" rx="2.2" ry="2.2"/>
	<ellipse transform="matrix(0.2079 -0.9781 0.9781 0.2079 63.5655 143.2341)" class="st0" cx="120.2" cy="32.4" rx="2.2" ry="2.2"/>
	<ellipse transform="matrix(0.1045 -0.9945 0.9945 0.1045 69.8133 139.8471)" class="st0" cx="112.6" cy="31.2" rx="2.2" ry="2.2"/>
	<circle class="st0" cx="104.8" cy="44.8" r="2.2"/>
	<ellipse transform="matrix(0.9781 -0.2079 0.2079 0.9781 -7.5593 20.2036)" class="st0" cx="92.3" cy="46.1" rx="2.2" ry="2.2"/>
	<ellipse transform="matrix(0.9135 -0.4067 0.4067 0.9135 -13.3639 37.0148)" class="st0" cx="80.4" cy="49.9" rx="2.2" ry="2.2"/>
	<ellipse transform="matrix(0.809 -0.5878 0.5878 0.809 -19.7712 51.596)" class="st0" cx="69.5" cy="56.2" rx="2.2" ry="2.2"/>
	<ellipse transform="matrix(0.6691 -0.7431 0.7431 0.6691 -28.1148 66.1051)" class="st0" cx="60.2" cy="64.6" rx="2.2" ry="2.2"/>
	<ellipse transform="matrix(0.5 -0.866 0.866 0.5 -38.3675 83.1175)" class="st0" cx="52.8" cy="74.8" rx="2.2" ry="2.2"/>
	<ellipse transform="matrix(0.309 -0.9511 0.9511 0.309 -49.0839 104.9593)" class="st0" cx="47.7" cy="86.3" rx="2.2" ry="2.2"/>
	<ellipse transform="matrix(0.1045 -0.9945 0.9945 0.1045 -57.6359 133.0744)" class="st0" cx="45.1" cy="98.5" rx="2.2" ry="2.2"/>
	<ellipse transform="matrix(0.9945 -0.1045 0.1045 0.9945 -11.3663 5.3207)" class="st0" cx="45.1" cy="111.1" rx="2.2" ry="2.2"/>
	<ellipse transform="matrix(0.9511 -0.309 0.309 0.9511 -35.794 20.776)" class="st0" cx="47.7" cy="123.4" rx="2.2" ry="2.2"/>
	<ellipse transform="matrix(0.866 -0.5 0.5 0.866 -60.3554 44.4666)" class="st0" cx="52.8" cy="134.9" rx="2.2" ry="2.2"/>
	<ellipse transform="matrix(0.7431 -0.6691 0.6691 0.7431 -81.5785 77.5168)" class="st0" cx="60.2" cy="145" rx="2.2" ry="2.2"/>
	<ellipse transform="matrix(0.5878 -0.809 0.809 0.5878 -95.4663 119.4794)" class="st0" cx="69.5" cy="153.4" rx="2.2" ry="2.2"/>
	<ellipse transform="matrix(0.4067 -0.9135 0.9135 0.4067 -98.2021 168.183)" class="st0" cx="80.4" cy="159.7" rx="2.2" ry="2.2"/>
	
		<ellipse transform="matrix(0.2079 -0.9781 0.9781 0.2079 -86.8713 219.8855)" class="st0" cx="92.3" cy="163.6" rx="2.2" ry="2.2"/>
	<circle class="st0" cx="104.8" cy="164.9" r="2.2"/>
	
		<ellipse transform="matrix(0.9781 -0.2079 0.2079 0.9781 -31.4469 27.9651)" class="st0" cx="117.3" cy="163.6" rx="2.2" ry="2.2"/>
	
		<ellipse transform="matrix(0.9135 -0.4067 0.4067 0.9135 -53.7813 66.3798)" class="st0" cx="129.3" cy="159.7" rx="2.2" ry="2.2"/>
	<ellipse transform="matrix(0.809 -0.5878 0.5878 0.809 -63.416 111.668)" class="st0" cx="140.1" cy="153.4" rx="2.2" ry="2.2"/>
	<ellipse transform="matrix(0.6691 -0.7431 0.7431 0.6691 -58.3163 159.0556)" class="st0" cx="149.5" cy="145" rx="2.2" ry="2.2"/>
	<ellipse transform="matrix(0.5 -0.866 0.866 0.5 -38.3675 203.2615)" class="st0" cx="156.8" cy="134.9" rx="2.2" ry="2.2"/>
	<ellipse transform="matrix(0.309 -0.9511 0.9511 0.309 -5.439 239.2844)" class="st0" cx="162" cy="123.4" rx="2.2" ry="2.2"/>
	
		<ellipse transform="matrix(0.1045 -0.9945 0.9945 0.1045 36.8706 263.1514)" class="st0" cx="164.6" cy="111.1" rx="2.2" ry="2.2"/>
	<ellipse transform="matrix(0.9945 -0.1045 0.1045 0.9945 -9.399 17.7415)" class="st0" cx="164.6" cy="98.5" rx="2.2" ry="2.2"/>
	<ellipse transform="matrix(0.9511 -0.309 0.309 0.9511 -18.7288 54.2683)" class="st0" cx="162" cy="86.3" rx="2.2" ry="2.2"/>
	<ellipse transform="matrix(0.866 -0.5 0.5 0.866 -16.3796 88.4424)" class="st0" cx="156.8" cy="74.8" rx="2.2" ry="2.2"/>
	<ellipse transform="matrix(0.7431 -0.6691 0.6691 0.7431 -4.8526 116.6106)" class="st0" cx="149.5" cy="64.6" rx="2.2" ry="2.2"/>
	<ellipse transform="matrix(0.5878 -0.809 0.809 0.5878 12.2791 136.5446)" class="st0" cx="140.1" cy="56.2" rx="2.2" ry="2.2"/>
	<ellipse transform="matrix(0.4067 -0.9135 0.9135 0.4067 31.0569 147.7104)" class="st0" cx="129.3" cy="49.9" rx="2.2" ry="2.2"/>
	<ellipse transform="matrix(0.2079 -0.9781 0.9781 0.2079 47.8651 151.2339)" class="st0" cx="117.3" cy="46.1" rx="2.2" ry="2.2"/>
	<circle class="st0" cx="104.8" cy="57.8" r="2.2"/>
	<ellipse transform="matrix(0.9781 -0.2079 0.2079 0.9781 -10.144 21.0434)" class="st0" cx="95" cy="58.8" rx="2.2" ry="2.2"/>
	<ellipse transform="matrix(0.9135 -0.4067 0.4067 0.9135 -17.7372 40.1922)" class="st0" cx="85.7" cy="61.8" rx="2.2" ry="2.2"/>
	<ellipse transform="matrix(0.809 -0.5878 0.5878 0.809 -24.4937 58.096)" class="st0" cx="77.2" cy="66.7" rx="2.2" ry="2.2"/>
	<ellipse transform="matrix(0.6691 -0.7431 0.7431 0.6691 -31.3827 76.1626)" class="st0" cx="69.8" cy="73.3" rx="2.2" ry="2.2"/>
	<ellipse transform="matrix(0.5 -0.866 0.866 0.5 -38.3675 96.1175)" class="st0" cx="64.1" cy="81.3" rx="2.2" ry="2.2"/>
	<ellipse transform="matrix(0.309 -0.9511 0.9511 0.309 -44.3613 119.4938)" class="st0" cx="60.1" cy="90.3" rx="2.2" ry="2.2"/>
	<ellipse transform="matrix(0.1045 -0.9945 0.9945 0.1045 -47.41 147.1492)" class="st0" cx="58" cy="99.9" rx="2.2" ry="2.2"/>
	<ellipse transform="matrix(0.9945 -0.1045 0.1045 0.9945 -11.1534 6.6647)" class="st0" cx="58" cy="109.7" rx="2.2" ry="2.2"/>
	<ellipse transform="matrix(0.9511 -0.309 0.309 0.9511 -33.9475 24.4)" class="st0" cx="60.1" cy="119.4" rx="2.2" ry="2.2"/>
	<ellipse transform="matrix(0.866 -0.5 0.5 0.866 -55.5971 49.2249)" class="st0" cx="64.1" cy="128.4" rx="2.2" ry="2.2"/>
	<ellipse transform="matrix(0.7431 -0.6691 0.6691 0.7431 -73.2765 81.7469)" class="st0" cx="69.8" cy="136.3" rx="2.2" ry="2.2"/>
	<ellipse transform="matrix(0.5878 -0.809 0.809 0.5878 -83.8079 121.3259)" class="st0" cx="77.2" cy="142.9" rx="2.2" ry="2.2"/>
	
		<ellipse transform="matrix(0.4067 -0.9135 0.9135 0.4067 -84.2158 165.9678)" class="st0" cx="85.7" cy="147.8" rx="2.2" ry="2.2"/>
	<ellipse transform="matrix(0.2079 -0.9781 0.9781 0.2079 -72.2923 212.4571)" class="st0" cx="95" cy="150.9" rx="2.2" ry="2.2"/>
	<circle class="st0" cx="104.8" cy="151.9" r="2.2"/>
	
		<ellipse transform="matrix(0.9781 -0.2079 0.2079 0.9781 -28.8622 27.1253)" class="st0" cx="114.6" cy="150.9" rx="2.2" ry="2.2"/>
	<ellipse transform="matrix(0.9135 -0.4067 0.4067 0.9135 -49.408 63.2024)" class="st0" cx="124" cy="147.8" rx="2.2" ry="2.2"/>
	<ellipse transform="matrix(0.809 -0.5878 0.5878 0.809 -58.6935 105.168)" class="st0" cx="132.5" cy="142.9" rx="2.2" ry="2.2"/>
	
		<ellipse transform="matrix(0.6691 -0.7431 0.7431 0.6691 -55.0484 148.998)" class="st0" cx="139.8" cy="136.3" rx="2.2" ry="2.2"/>
	<ellipse transform="matrix(0.5 -0.866 0.866 0.5 -38.3675 190.2615)" class="st0" cx="145.6" cy="128.4" rx="2.2" ry="2.2"/>
	<ellipse transform="matrix(0.309 -0.9511 0.9511 0.309 -10.1615 224.75)" class="st0" cx="149.6" cy="119.4" rx="2.2" ry="2.2"/>
	
		<ellipse transform="matrix(0.1045 -0.9945 0.9945 0.1045 26.6447 249.0766)" class="st0" cx="151.6" cy="109.7" rx="2.2" ry="2.2"/>
	<ellipse transform="matrix(0.9945 -0.1045 0.1045 0.9945 -9.6119 16.3976)" class="st0" cx="151.6" cy="99.9" rx="2.2" ry="2.2"/>
	<ellipse transform="matrix(0.9511 -0.309 0.309 0.9511 -20.5753 50.6443)" class="st0" cx="149.6" cy="90.3" rx="2.2" ry="2.2"/>
	<ellipse transform="matrix(0.866 -0.5 0.5 0.866 -21.138 83.684)" class="st0" cx="145.6" cy="81.3" rx="2.2" ry="2.2"/>
	
		<ellipse transform="matrix(0.7431 -0.6691 0.6691 0.7431 -13.1546 112.3805)" class="st0" cx="139.8" cy="73.3" rx="2.2" ry="2.2"/>
	<ellipse transform="matrix(0.5878 -0.809 0.809 0.5878 0.6207 134.698)" class="st0" cx="132.5" cy="66.7" rx="2.2" ry="2.2"/>
	<ellipse transform="matrix(0.4067 -0.9135 0.9135 0.4067 17.0706 149.9256)" class="st0" cx="124" cy="61.8" rx="2.2" ry="2.2"/>
	<ellipse transform="matrix(0.2079 -0.9781 0.9781 0.2079 33.2861 158.6622)" class="st0" cx="114.6" cy="58.8" rx="2.2" ry="2.2"/>
	<circle class="st0" cx="104.8" cy="70.8" r="2.2"/>
	<ellipse transform="matrix(0.9781 -0.2079 0.2079 0.9781 -12.7287 21.8832)" class="st0" cx="97.7" cy="71.5" rx="2.2" ry="2.2"/>
	<ellipse transform="matrix(0.9135 -0.4067 0.4067 0.9135 -22.1105 43.3696)" class="st0" cx="91" cy="73.7" rx="2.2" ry="2.2"/>
	<ellipse transform="matrix(0.809 -0.5878 0.5878 0.809 -29.2162 64.596)" class="st0" cx="84.8" cy="77.3" rx="2.2" ry="2.2"/>
	<ellipse transform="matrix(0.6691 -0.7431 0.7431 0.6691 -34.6506 86.2202)" class="st0" cx="79.5" cy="82" rx="2.2" ry="2.2"/>
	<ellipse transform="matrix(0.5 -0.866 0.866 0.5 -38.3675 109.1175)" class="st0" cx="75.3" cy="87.8" rx="2.2" ry="2.2"/>
	<ellipse transform="matrix(0.309 -0.9511 0.9511 0.309 -39.6388 134.0282)" class="st0" cx="72.4" cy="94.3" rx="2.2" ry="2.2"/>
	<ellipse transform="matrix(0.1045 -0.9945 0.9945 0.1045 -37.184 161.224)" class="st0" cx="70.9" cy="101.3" rx="2.2" ry="2.2"/>
	<ellipse transform="matrix(0.9945 -0.1045 0.1045 0.9945 -10.9406 8.0086)" class="st0" cx="70.9" cy="108.4" rx="2.2" ry="2.2"/>
	<ellipse transform="matrix(0.9511 -0.309 0.309 0.9511 -32.101 28.0239)" class="st0" cx="72.4" cy="115.4" rx="2.2" ry="2.2"/>
	<ellipse transform="matrix(0.866 -0.5 0.5 0.866 -50.8387 53.9833)" class="st0" cx="75.3" cy="121.9" rx="2.2" ry="2.2"/>
	<ellipse transform="matrix(0.7431 -0.6691 0.6691 0.7431 -64.9745 85.977)" class="st0" cx="79.5" cy="127.6" rx="2.2" ry="2.2"/>
	<ellipse transform="matrix(0.5878 -0.809 0.809 0.5878 -72.1495 123.1724)" class="st0" cx="84.8" cy="132.4" rx="2.2" ry="2.2"/>
	<ellipse transform="matrix(0.4067 -0.9135 0.9135 0.4067 -70.2296 163.7526)" class="st0" cx="91" cy="135.9" rx="2.2" ry="2.2"/>
	
		<ellipse transform="matrix(0.2079 -0.9781 0.9781 0.2079 -57.7134 205.0288)" class="st0" cx="97.7" cy="138.1" rx="2.2" ry="2.2"/>
	<circle class="st0" cx="104.8" cy="138.9" r="2.2"/>
	
		<ellipse transform="matrix(0.9781 -0.2079 0.2079 0.9781 -26.2775 26.2855)" class="st0" cx="111.9" cy="138.1" rx="2.2" ry="2.2"/>
	<ellipse transform="matrix(0.9135 -0.4067 0.4067 0.9135 -45.0347 60.025)" class="st0" cx="118.7" cy="135.9" rx="2.2" ry="2.2"/>
	<ellipse transform="matrix(0.809 -0.5878 0.5878 0.809 -53.971 98.668)" class="st0" cx="124.8" cy="132.4" rx="2.2" ry="2.2"/>
	
		<ellipse transform="matrix(0.6691 -0.7431 0.7431 0.6691 -51.7805 138.9404)" class="st0" cx="130.1" cy="127.6" rx="2.2" ry="2.2"/>
	<ellipse transform="matrix(0.5 -0.866 0.866 0.5 -38.3675 177.2615)" class="st0" cx="134.3" cy="121.9" rx="2.2" ry="2.2"/>
	<ellipse transform="matrix(0.309 -0.9511 0.9511 0.309 -14.884 210.2155)" class="st0" cx="137.2" cy="115.4" rx="2.2" ry="2.2"/>
	
		<ellipse transform="matrix(0.1045 -0.9945 0.9945 0.1045 16.4187 235.0018)" class="st0" cx="138.7" cy="108.4" rx="2.2" ry="2.2"/>
	<ellipse transform="matrix(0.9945 -0.1045 0.1045 0.9945 -9.8248 15.0536)" class="st0" cx="138.7" cy="101.3" rx="2.2" ry="2.2"/>
	<ellipse transform="matrix(0.9511 -0.309 0.309 0.9511 -22.4219 47.0203)" class="st0" cx="137.2" cy="94.3" rx="2.2" ry="2.2"/>
	<ellipse transform="matrix(0.866 -0.5 0.5 0.866 -25.8963 78.9257)" class="st0" cx="134.3" cy="87.8" rx="2.2" ry="2.2"/>
	<ellipse transform="matrix(0.7431 -0.6691 0.6691 0.7431 -21.4566 108.1504)" class="st0" cx="130.1" cy="82" rx="2.2" ry="2.2"/>
	<ellipse transform="matrix(0.5878 -0.809 0.809 0.5878 -11.0378 132.8515)" class="st0" cx="124.8" cy="77.3" rx="2.2" ry="2.2"/>
	<ellipse transform="matrix(0.4067 -0.9135 0.9135 0.4067 3.0843 152.1408)" class="st0" cx="118.7" cy="73.7" rx="2.2" ry="2.2"/>
	<ellipse transform="matrix(0.2079 -0.9781 0.9781 0.2079 18.7072 166.0906)" class="st0" cx="111.9" cy="71.5" rx="2.2" ry="2.2"/>
	<circle class="st0" cx="104.8" cy="83.8" r="2.2"/>
	<ellipse transform="matrix(0.9135 -0.4067 0.4067 0.9135 -26.4838 46.547)" class="st0" cx="96.3" cy="85.6" rx="2.2" ry="2.2"/>
	<ellipse transform="matrix(0.6691 -0.7431 0.7431 0.6691 -37.9185 96.2778)" class="st0" cx="89.2" cy="90.7" rx="2.2" ry="2.2"/>
	<ellipse transform="matrix(0.309 -0.9511 0.9511 0.309 -34.9163 148.5627)" class="st0" cx="84.8" cy="98.3" rx="2.2" ry="2.2"/>
	<ellipse transform="matrix(0.9945 -0.1045 0.1045 0.9945 -10.7277 9.3526)" class="st0" cx="83.9" cy="107" rx="2.2" ry="2.2"/>
	<ellipse transform="matrix(0.866 -0.5 0.5 0.866 -46.0804 58.7416)" class="st0" cx="86.6" cy="115.4" rx="2.2" ry="2.2"/>
	<ellipse transform="matrix(0.5878 -0.809 0.809 0.5878 -60.491 125.0189)" class="st0" cx="92.4" cy="121.9" rx="2.2" ry="2.2"/>
	
		<ellipse transform="matrix(0.2079 -0.9781 0.9781 0.2079 -43.1345 197.6004)" class="st0" cx="100.4" cy="125.4" rx="2.2" ry="2.2"/>
	
		<ellipse transform="matrix(0.9781 -0.2079 0.2079 0.9781 -23.6927 25.4456)" class="st0" cx="109.2" cy="125.4" rx="2.2" ry="2.2"/>
	<ellipse transform="matrix(0.809 -0.5878 0.5878 0.809 -49.2485 92.168)" class="st0" cx="117.2" cy="121.9" rx="2.2" ry="2.2"/>
	<ellipse transform="matrix(0.5 -0.866 0.866 0.5 -38.3675 164.2615)" class="st0" cx="123.1" cy="115.4" rx="2.2" ry="2.2"/>
	<ellipse transform="matrix(0.1045 -0.9945 0.9945 0.1045 6.1928 220.927)" class="st0" cx="125.8" cy="107" rx="2.2" ry="2.2"/>
	<ellipse transform="matrix(0.9511 -0.309 0.309 0.9511 -24.2684 43.3963)" class="st0" cx="124.9" cy="98.3" rx="2.2" ry="2.2"/>
	
		<ellipse transform="matrix(0.7431 -0.6691 0.6691 0.7431 -29.7586 103.9203)" class="st0" cx="120.5" cy="90.7" rx="2.2" ry="2.2"/>
	<ellipse transform="matrix(0.4067 -0.9135 0.9135 0.4067 -10.9019 154.356)" class="st0" cx="113.4" cy="85.6" rx="2.2" ry="2.2"/>
	<circle class="st0" cx="104.8" cy="94.8" r="2.2"/>
	<ellipse transform="matrix(0.7071 -0.7071 0.7071 0.7071 -40.4687 97.7)" class="st0" cx="97.7" cy="97.7" rx="2.2" ry="2.2"/>
	<circle class="st0" cx="94.8" cy="104.8" r="2.2"/>
	<ellipse transform="matrix(0.7071 -0.7071 0.7071 0.7071 -50.5407 101.872)" class="st0" cx="97.7" cy="111.9" rx="2.2" ry="2.2"/>
	<circle class="st0" cx="104.8" cy="114.9" r="2.2"/>
	
		<ellipse transform="matrix(0.7071 -0.7071 0.7071 0.7071 -46.3687 111.944)" class="st0" cx="111.9" cy="111.9" rx="2.2" ry="2.2"/>
	<circle class="st0" cx="114.9" cy="104.8" r="2.2"/>
	<ellipse transform="matrix(0.7071 -0.7071 0.7071 0.7071 -36.2967 107.772)" class="st0" cx="111.9" cy="97.7" rx="2.2" ry="2.2"/>
	<ellipse transform="matrix(0.9945 -0.1045 0.1045 0.9945 -1.2775 10.089)" class="st0" cx="95.6" cy="17.2" rx="2.2" ry="2.2"/>
	<ellipse transform="matrix(0.9781 -0.2079 0.2079 0.9781 -1.9922 18.3947)" class="st0" cx="86.5" cy="18.7" rx="2.2" ry="2.2"/>
	<ellipse transform="matrix(0.9511 -0.309 0.309 0.9511 -2.7097 25.0124)" class="st0" cx="77.6" cy="21.1" rx="2.2" ry="2.2"/>
	<ellipse transform="matrix(0.9135 -0.4067 0.4067 0.9135 -3.9445 30.1712)" class="st0" cx="69" cy="24.4" rx="2.2" ry="2.2"/>
	<ellipse transform="matrix(0.866 -0.5 0.5 0.866 -6.1309 34.2179)" class="st0" cx="60.8" cy="28.5" rx="2.2" ry="2.2"/>
	<ellipse transform="matrix(0.809 -0.5878 0.5878 0.809 -9.5996 37.596)" class="st0" cx="53.1" cy="33.6" rx="2.2" ry="2.2"/>
	<ellipse transform="matrix(0.7431 -0.6691 0.6691 0.7431 -14.5577 40.8195)" class="st0" cx="45.9" cy="39.4" rx="2.2" ry="2.2"/>
	<ellipse transform="matrix(0.6691 -0.7431 0.7431 0.6691 -21.0763 44.4426)" class="st0" cx="39.4" cy="45.9" rx="2.2" ry="2.2"/>
	<ellipse transform="matrix(0.5878 -0.809 0.809 0.5878 -29.0839 49.0288)" class="st0" cx="33.6" cy="53.1" rx="2.2" ry="2.2"/>
	<ellipse transform="matrix(0.5 -0.866 0.866 0.5 -38.3675 55.1175)" class="st0" cx="28.5" cy="60.8" rx="2.2" ry="2.2"/>
	<ellipse transform="matrix(0.4067 -0.9135 0.9135 0.4067 -48.5801 63.1929)" class="st0" cx="24.4" cy="69" rx="2.2" ry="2.2"/>
	<ellipse transform="matrix(0.309 -0.9511 0.9511 0.309 -59.2555 73.6544)" class="st0" cx="21.1" cy="77.6" rx="2.2" ry="2.2"/>
	<ellipse transform="matrix(0.2079 -0.9781 0.9781 0.2079 -69.8284 86.7907)" class="st0" cx="18.7" cy="86.5" rx="2.2" ry="2.2"/>
	<ellipse transform="matrix(0.1045 -0.9945 0.9945 0.1045 -79.661 102.7594)" class="st0" cx="17.2" cy="95.6" rx="2.2" ry="2.2"/>
	<circle class="st0" cx="16.8" cy="104.8" r="2.2"/>
	<ellipse transform="matrix(0.9945 -0.1045 0.1045 0.9945 -11.8248 2.4259)" class="st0" cx="17.2" cy="114" rx="2.2" ry="2.2"/>
	<ellipse transform="matrix(0.9781 -0.2079 0.2079 0.9781 -25.1927 6.5734)" class="st0" cx="18.7" cy="123.1" rx="2.2" ry="2.2"/>
	<ellipse transform="matrix(0.9511 -0.309 0.309 0.9511 -39.7711 12.9705)" class="st0" cx="21.1" cy="132" rx="2.2" ry="2.2"/>
	<ellipse transform="matrix(0.9135 -0.4067 0.4067 0.9135 -55.0987 22.0691)" class="st0" cx="24.4" cy="140.6" rx="2.2" ry="2.2"/>
	<ellipse transform="matrix(0.866 -0.5 0.5 0.866 -70.6041 34.2179)" class="st0" cx="28.5" cy="148.9" rx="2.2" ry="2.2"/>
	<ellipse transform="matrix(0.809 -0.5878 0.5878 0.809 -85.6296 49.638)" class="st0" cx="33.6" cy="156.6" rx="2.2" ry="2.2"/>
	<ellipse transform="matrix(0.7431 -0.6691 0.6691 0.7431 -99.4598 68.4058)" class="st0" cx="39.4" cy="163.8" rx="2.2" ry="2.2"/>
	<ellipse transform="matrix(0.6691 -0.7431 0.7431 0.6691 -111.3532 90.441)" class="st0" cx="45.9" cy="170.3" rx="2.2" ry="2.2"/>
	<ellipse transform="matrix(0.5878 -0.809 0.809 0.5878 -120.5768 115.5023)" class="st0" cx="53.1" cy="176.1" rx="2.2" ry="2.2"/>
	<ellipse transform="matrix(0.5 -0.866 0.866 0.5 -126.4395 143.1895)" class="st0" cx="60.8" cy="181.1" rx="2.2" ry="2.2"/>
	<ellipse transform="matrix(0.4067 -0.9135 0.9135 0.4067 -128.3264 172.9542)" class="st0" cx="69" cy="185.3" rx="2.2" ry="2.2"/>
	<ellipse transform="matrix(0.309 -0.9511 0.9511 0.309 -125.7289 204.1159)" class="st0" cx="77.6" cy="188.6" rx="2.2" ry="2.2"/>
	<ellipse transform="matrix(0.2079 -0.9781 0.9781 0.2079 -118.2721 235.885)" class="st0" cx="86.5" cy="191" rx="2.2" ry="2.2"/>
	
		<ellipse transform="matrix(0.1045 -0.9945 0.9945 0.1045 -105.7361 267.3912)" class="st0" cx="95.6" cy="192.4" rx="2.2" ry="2.2"/>
	<circle class="st0" cx="104.8" cy="192.9" r="2.2"/>
	<ellipse transform="matrix(0.9945 -0.1045 0.1045 0.9945 -19.4878 12.9732)" class="st0" cx="114" cy="192.4" rx="2.2" ry="2.2"/>
	<ellipse transform="matrix(0.9781 -0.2079 0.2079 0.9781 -37.014 29.774)" class="st0" cx="123.1" cy="191" rx="2.2" ry="2.2"/>
	<ellipse transform="matrix(0.9511 -0.309 0.309 0.9511 -51.8131 50.0318)" class="st0" cx="132" cy="188.6" rx="2.2" ry="2.2"/>
	
		<ellipse transform="matrix(0.9135 -0.4067 0.4067 0.9135 -63.2008 73.2234)" class="st0" cx="140.6" cy="185.3" rx="2.2" ry="2.2"/>
	<ellipse transform="matrix(0.866 -0.5 0.5 0.866 -70.6041 98.6911)" class="st0" cx="148.9" cy="181.1" rx="2.2" ry="2.2"/>
	<ellipse transform="matrix(0.809 -0.5878 0.5878 0.809 -73.5876 125.668)" class="st0" cx="156.6" cy="176.1" rx="2.2" ry="2.2"/>
	
		<ellipse transform="matrix(0.7431 -0.6691 0.6691 0.7431 -71.8734 153.3079)" class="st0" cx="163.8" cy="170.3" rx="2.2" ry="2.2"/>
	
		<ellipse transform="matrix(0.6691 -0.7431 0.7431 0.6691 -65.3548 180.718)" class="st0" cx="170.3" cy="163.8" rx="2.2" ry="2.2"/>
	<ellipse transform="matrix(0.5878 -0.809 0.809 0.5878 -54.1033 206.9951)" class="st0" cx="176.1" cy="156.6" rx="2.2" ry="2.2"/>
	<ellipse transform="matrix(0.5 -0.866 0.866 0.5 -38.3675 231.2615)" class="st0" cx="181.1" cy="148.9" rx="2.2" ry="2.2"/>
	
		<ellipse transform="matrix(0.4067 -0.9135 0.9135 0.4067 -18.5651 252.7005)" class="st0" cx="185.3" cy="140.6" rx="2.2" ry="2.2"/>
	<ellipse transform="matrix(0.309 -0.9511 0.9511 0.309 4.7326 270.5894)" class="st0" cx="188.6" cy="132" rx="2.2" ry="2.2"/>
	<ellipse transform="matrix(0.2079 -0.9781 0.9781 0.2079 30.8222 284.3286)" class="st0" cx="191" cy="123.1" rx="2.2" ry="2.2"/>
	<ellipse transform="matrix(0.1045 -0.9945 0.9945 0.1045 58.8957 293.4663)" class="st0" cx="192.4" cy="114" rx="2.2" ry="2.2"/>
	<circle class="st0" cx="192.9" cy="104.8" r="2.2"/>
	<ellipse transform="matrix(0.9945 -0.1045 0.1045 0.9945 -8.9405 20.6363)" class="st0" cx="192.4" cy="95.6" rx="2.2" ry="2.2"/>
	<ellipse transform="matrix(0.9781 -0.2079 0.2079 0.9781 -13.8135 41.5952)" class="st0" cx="191" cy="86.5" rx="2.2" ry="2.2"/>
	<ellipse transform="matrix(0.9511 -0.309 0.309 0.9511 -14.7517 62.0738)" class="st0" cx="188.6" cy="77.6" rx="2.2" ry="2.2"/>
	<ellipse transform="matrix(0.9135 -0.4067 0.4067 0.9135 -12.0465 81.3254)" class="st0" cx="185.3" cy="69" rx="2.2" ry="2.2"/>
	<ellipse transform="matrix(0.866 -0.5 0.5 0.866 -6.1309 98.6911)" class="st0" cx="181.1" cy="60.8" rx="2.2" ry="2.2"/>
	<ellipse transform="matrix(0.809 -0.5878 0.5878 0.809 2.4424 113.6261)" class="st0" cx="176.1" cy="53.1" rx="2.2" ry="2.2"/>
	<ellipse transform="matrix(0.7431 -0.6691 0.6691 0.7431 13.0287 125.7215)" class="st0" cx="170.3" cy="45.9" rx="2.2" ry="2.2"/>
	<ellipse transform="matrix(0.6691 -0.7431 0.7431 0.6691 24.9222 134.7196)" class="st0" cx="163.8" cy="39.4" rx="2.2" ry="2.2"/>
	<ellipse transform="matrix(0.5878 -0.809 0.809 0.5878 37.3896 140.5217)" class="st0" cx="156.6" cy="33.6" rx="2.2" ry="2.2"/>
	<ellipse transform="matrix(0.5 -0.866 0.866 0.5 49.7045 143.1895)" class="st0" cx="148.9" cy="28.5" rx="2.2" ry="2.2"/>
	<ellipse transform="matrix(0.4067 -0.9135 0.9135 0.4067 61.1812 142.9392)" class="st0" cx="140.6" cy="24.4" rx="2.2" ry="2.2"/>
	<ellipse transform="matrix(0.309 -0.9511 0.9511 0.309 71.2061 140.1278)" class="st0" cx="132" cy="21.1" rx="2.2" ry="2.2"/>
	<ellipse transform="matrix(0.2079 -0.9781 0.9781 0.2079 79.2659 135.2344)" class="st0" cx="123.1" cy="18.7" rx="2.2" ry="2.2"/>
	<ellipse transform="matrix(0.1045 -0.9945 0.9945 0.1045 84.9708 128.8346)" class="st0" cx="114" cy="17.2" rx="2.2" ry="2.2"/>
	<ellipse transform="matrix(0.9945 -0.1045 0.1045 0.9945 0.1699 9.8598)" class="st0" cx="94.2" cy="3.3" rx="2.2" ry="2.2"/>
	<ellipse transform="matrix(0.9781 -0.2079 0.2079 0.9781 0.7914 17.4903)" class="st0" cx="83.6" cy="5" rx="2.2" ry="2.2"/>
	<ellipse transform="matrix(0.9511 -0.309 0.309 0.9511 1.193 23.0239)" class="st0" cx="73.3" cy="7.7" rx="2.2" ry="2.2"/>
	<ellipse transform="matrix(0.9135 -0.4067 0.4067 0.9135 0.7652 26.7494)" class="st0" cx="63.3" cy="11.6" rx="2.2" ry="2.2"/>
	<ellipse transform="matrix(0.866 -0.5 0.5 0.866 -1.0066 29.0935)" class="st0" cx="53.8" cy="16.4" rx="2.2" ry="2.2"/>
	<ellipse transform="matrix(0.809 -0.5878 0.5878 0.809 -4.5138 30.596)" class="st0" cx="44.8" cy="22.2" rx="2.2" ry="2.2"/>
	<ellipse transform="matrix(0.7431 -0.6691 0.6691 0.7431 -10.0022 31.8788)" class="st0" cx="36.5" cy="29" rx="2.2" ry="2.2"/>
	<ellipse transform="matrix(0.6691 -0.7431 0.7431 0.6691 -17.557 33.6114)" class="st0" cx="29" cy="36.5" rx="2.2" ry="2.2"/>
	<ellipse transform="matrix(0.5878 -0.809 0.809 0.5878 -27.0953 36.4736)" class="st0" cx="22.2" cy="44.8" rx="2.2" ry="2.2"/>
	<ellipse transform="matrix(0.5 -0.866 0.866 0.5 -38.3675 41.1175)" class="st0" cx="16.4" cy="53.8" rx="2.2" ry="2.2"/>
	<ellipse transform="matrix(0.4067 -0.9135 0.9135 0.4067 -50.9657 48.1308)" class="st0" cx="11.6" cy="63.3" rx="2.2" ry="2.2"/>
	<ellipse transform="matrix(0.309 -0.9511 0.9511 0.309 -64.3412 58.0019)" class="st0" cx="7.7" cy="73.3" rx="2.2" ry="2.2"/>
	<ellipse transform="matrix(0.2079 -0.9781 0.9781 0.2079 -77.8282 71.0903)" class="st0" cx="5" cy="83.6" rx="2.2" ry="2.2"/>
	<ellipse transform="matrix(0.1045 -0.9945 0.9945 0.1045 -90.6735 87.602)" class="st0" cx="3.3" cy="94.2" rx="2.2" ry="2.2"/>
	<circle class="st0" cx="2.8" cy="104.8" r="2.2"/>
	<ellipse transform="matrix(0.9945 -0.1045 0.1045 0.9945 -12.054 0.9786)" class="st0" cx="3.3" cy="115.5" rx="2.2" ry="2.2"/>
	<ellipse transform="matrix(0.9781 -0.2079 0.2079 0.9781 -26.0972 3.7899)" class="st0" cx="5" cy="126" rx="2.2" ry="2.2"/>
	<ellipse transform="matrix(0.9511 -0.309 0.309 0.9511 -41.7597 9.0677)" class="st0" cx="7.7" cy="136.4" rx="2.2" ry="2.2"/>
	<ellipse transform="matrix(0.9135 -0.4067 0.4067 0.9135 -58.5205 17.3594)" class="st0" cx="11.6" cy="146.3" rx="2.2" ry="2.2"/>
	<ellipse transform="matrix(0.866 -0.5 0.5 0.866 -75.7285 29.0935)" class="st0" cx="16.4" cy="155.9" rx="2.2" ry="2.2"/>
	<ellipse transform="matrix(0.809 -0.5878 0.5878 0.809 -92.6296 44.5522)" class="st0" cx="22.2" cy="164.8" rx="2.2" ry="2.2"/>
	<ellipse transform="matrix(0.7431 -0.6691 0.6691 0.7431 -108.4004 63.8503)" class="st0" cx="29" cy="173.1" rx="2.2" ry="2.2"/>
	
		<ellipse transform="matrix(0.6691 -0.7431 0.7431 0.6691 -122.1845 86.9218)" class="st0" cx="36.5" cy="180.7" rx="2.2" ry="2.2"/>
	<ellipse transform="matrix(0.5878 -0.809 0.809 0.5878 -133.132 113.5137)" class="st0" cx="44.8" cy="187.4" rx="2.2" ry="2.2"/>
	<ellipse transform="matrix(0.5 -0.866 0.866 0.5 -140.4395 143.1895)" class="st0" cx="53.8" cy="193.2" rx="2.2" ry="2.2"/>
	
		<ellipse transform="matrix(0.4067 -0.9135 0.9135 0.4067 -143.3885 175.3398)" class="st0" cx="63.3" cy="198.1" rx="2.2" ry="2.2"/>
	<ellipse transform="matrix(0.309 -0.9511 0.9511 0.309 -141.3814 209.2017)" class="st0" cx="73.3" cy="201.9" rx="2.2" ry="2.2"/>
	
		<ellipse transform="matrix(0.2079 -0.9781 0.9781 0.2079 -133.9725 243.8847)" class="st0" cx="83.6" cy="204.7" rx="2.2" ry="2.2"/>
	
		<ellipse transform="matrix(0.1045 -0.9945 0.9945 0.1045 -120.8936 278.4038)" class="st0" cx="94.2" cy="206.3" rx="2.2" ry="2.2"/>
	<circle class="st0" cx="104.8" cy="206.9" r="2.2"/>
	
		<ellipse transform="matrix(0.9945 -0.1045 0.1045 0.9945 -20.9352 13.2025)" class="st0" cx="115.5" cy="206.3" rx="2.2" ry="2.2"/>
	<ellipse transform="matrix(0.9781 -0.2079 0.2079 0.9781 -39.7976 30.6784)" class="st0" cx="126" cy="204.7" rx="2.2" ry="2.2"/>
	<ellipse transform="matrix(0.9511 -0.309 0.309 0.9511 -55.7159 52.0204)" class="st0" cx="136.4" cy="201.9" rx="2.2" ry="2.2"/>
	
		<ellipse transform="matrix(0.9135 -0.4067 0.4067 0.9135 -67.9105 76.6452)" class="st0" cx="146.3" cy="198.1" rx="2.2" ry="2.2"/>
	<ellipse transform="matrix(0.866 -0.5 0.5 0.866 -75.7285 103.8154)" class="st0" cx="155.9" cy="193.2" rx="2.2" ry="2.2"/>
	<ellipse transform="matrix(0.809 -0.5878 0.5878 0.809 -78.6734 132.668)" class="st0" cx="164.8" cy="187.4" rx="2.2" ry="2.2"/>
	
		<ellipse transform="matrix(0.7431 -0.6691 0.6691 0.7431 -76.4289 162.2485)" class="st0" cx="173.1" cy="180.7" rx="2.2" ry="2.2"/>
	
		<ellipse transform="matrix(0.6691 -0.7431 0.7431 0.6691 -68.8741 191.5492)" class="st0" cx="180.7" cy="173.1" rx="2.2" ry="2.2"/>
	<ellipse transform="matrix(0.5878 -0.809 0.809 0.5878 -56.0919 219.5504)" class="st0" cx="187.4" cy="164.8" rx="2.2" ry="2.2"/>
	<ellipse transform="matrix(0.5 -0.866 0.866 0.5 -38.3675 245.2615)" class="st0" cx="193.2" cy="155.9" rx="2.2" ry="2.2"/>
	
		<ellipse transform="matrix(0.4067 -0.9135 0.9135 0.4067 -16.1795 267.7626)" class="st0" cx="198.1" cy="146.3" rx="2.2" ry="2.2"/>
	<ellipse transform="matrix(0.309 -0.9511 0.9511 0.309 9.8184 286.2418)" class="st0" cx="201.9" cy="136.4" rx="2.2" ry="2.2"/>
	<ellipse transform="matrix(0.2079 -0.9781 0.9781 0.2079 38.822 300.0291)" class="st0" cx="204.7" cy="126" rx="2.2" ry="2.2"/>
	
		<ellipse transform="matrix(0.1045 -0.9945 0.9945 0.1045 69.9082 308.6238)" class="st0" cx="206.3" cy="115.5" rx="2.2" ry="2.2"/>
	<circle class="st0" cx="206.9" cy="104.8" r="2.2"/>
	<ellipse transform="matrix(0.9945 -0.1045 0.1045 0.9945 -8.7113 22.0836)" class="st0" cx="206.3" cy="94.2" rx="2.2" ry="2.2"/>
	<ellipse transform="matrix(0.9781 -0.2079 0.2079 0.9781 -12.909 44.3788)" class="st0" cx="204.7" cy="83.6" rx="2.2" ry="2.2"/>
	<ellipse transform="matrix(0.9511 -0.309 0.309 0.9511 -12.7632 65.9766)" class="st0" cx="201.9" cy="73.3" rx="2.2" ry="2.2"/>
	<ellipse transform="matrix(0.9135 -0.4067 0.4067 0.9135 -8.6247 86.0351)" class="st0" cx="198.1" cy="63.3" rx="2.2" ry="2.2"/>
	<ellipse transform="matrix(0.866 -0.5 0.5 0.866 -1.0066 103.8154)" class="st0" cx="193.2" cy="53.8" rx="2.2" ry="2.2"/>
	<ellipse transform="matrix(0.809 -0.5878 0.5878 0.809 9.4424 118.7119)" class="st0" cx="187.4" cy="44.8" rx="2.2" ry="2.2"/>
	<ellipse transform="matrix(0.7431 -0.6691 0.6691 0.7431 21.9693 130.277)" class="st0" cx="180.7" cy="36.5" rx="2.2" ry="2.2"/>
	<ellipse transform="matrix(0.6691 -0.7431 0.7431 0.6691 35.7534 138.2389)" class="st0" cx="173.1" cy="29" rx="2.2" ry="2.2"/>
	<ellipse transform="matrix(0.5878 -0.809 0.809 0.5878 49.9448 142.5102)" class="st0" cx="164.8" cy="22.2" rx="2.2" ry="2.2"/>
	<ellipse transform="matrix(0.5 -0.866 0.866 0.5 63.7045 143.1895)" class="st0" cx="155.9" cy="16.4" rx="2.2" ry="2.2"/>
	<ellipse transform="matrix(0.4067 -0.9135 0.9135 0.4067 76.2433 140.5536)" class="st0" cx="146.3" cy="11.6" rx="2.2" ry="2.2"/>
	<ellipse transform="matrix(0.309 -0.9511 0.9511 0.309 86.8585 135.042)" class="st0" cx="136.4" cy="7.7" rx="2.2" ry="2.2"/>
	<ellipse transform="matrix(0.2079 -0.9781 0.9781 0.2079 94.9663 127.2346)" class="st0" cx="126" cy="5" rx="2.2" ry="2.2"/>
	<ellipse transform="matrix(0.1045 -0.9945 0.9945 0.1045 100.1283 117.822)" class="st0" cx="115.5" cy="3.3" rx="2.2" ry="2.2"/>
	
		<ellipse transform="matrix(0.7071 -0.7071 0.7071 0.7071 -43.4187 104.822)" class="st0" cx="104.8" cy="104.8" rx="2.2" ry="2.2"/>
	
		<ellipse transform="matrix(0.2588 -0.9659 0.9659 0.2588 -23.5582 178.9424)" class="st0" cx="104.8" cy="104.8" rx="2.2" ry="2.2"/>
	
		<ellipse transform="matrix(0.9659 -0.2588 0.2588 0.9659 -23.5582 30.7017)" class="st0" cx="104.8" cy="104.8" rx="2.2" ry="2.2"/>
	
		<ellipse transform="matrix(0.7071 -0.7071 0.7071 0.7071 -43.4187 104.822)" class="st0" cx="104.8" cy="104.8" rx="2.2" ry="2.2"/>
	
		<ellipse transform="matrix(0.2588 -0.9659 0.9659 0.2588 -23.5582 178.9424)" class="st0" cx="104.8" cy="104.8" rx="2.2" ry="2.2"/>
	
		<ellipse transform="matrix(0.9659 -0.2588 0.2588 0.9659 -23.5582 30.7017)" class="st0" cx="104.8" cy="104.8" rx="2.2" ry="2.2"/>
	
		<ellipse transform="matrix(0.7071 -0.7071 0.7071 0.7071 -43.4187 104.822)" class="st0" cx="104.8" cy="104.8" rx="2.2" ry="2.2"/>
	
		<ellipse transform="matrix(0.2588 -0.9659 0.9659 0.2588 -23.5582 178.9424)" class="st0" cx="104.8" cy="104.8" rx="2.2" ry="2.2"/>
	
		<ellipse transform="matrix(0.9659 -0.2588 0.2588 0.9659 -23.5582 30.7017)" class="st0" cx="104.8" cy="104.8" rx="2.2" ry="2.2"/>
	
		<ellipse transform="matrix(0.7071 -0.7071 0.7071 0.7071 -43.4187 104.822)" class="st0" cx="104.8" cy="104.8" rx="2.2" ry="2.2"/>
	
		<ellipse transform="matrix(0.2588 -0.9659 0.9659 0.2588 -23.5582 178.9424)" class="st0" cx="104.8" cy="104.8" rx="2.2" ry="2.2"/>
	
		<ellipse transform="matrix(0.9659 -0.2588 0.2588 0.9659 -23.5582 30.7017)" class="st0" cx="104.8" cy="104.8" rx="2.2" ry="2.2"/>
</g>
</svg>
