<?xml version="1.0" encoding="utf-8"?>
<!-- Generator: Adobe Illustrator 21.0.0, SVG Export Plug-In . SVG Version: 6.00 Build 0)  -->
<svg version="1.1" id="Layer_1" xmlns="http://www.w3.org/2000/svg" xmlns:xlink="http://www.w3.org/1999/xlink" x="0px" y="0px"
	 viewBox="0 0 216 216" style="enable-background:new 0 0 216 216;" xml:space="preserve">
<g>
	<path d="M108,1c28.6,0,55.5,11.1,75.7,31.3C203.9,52.5,215,79.4,215,108s-11.1,55.5-31.3,75.7C163.5,203.9,136.6,215,108,215
		s-55.5-11.1-75.7-31.3C12.1,163.5,1,136.6,1,108s11.1-55.5,31.3-75.7C52.5,12.1,79.4,1,108,1 M108,0C48.4,0,0,48.4,0,108
		s48.4,108,108,108s108-48.4,108-108S167.6,0,108,0L108,0z"/>
</g>
</svg>
