<?xml version="1.0" encoding="utf-8"?>
<!-- Generator: Adobe Illustrator 21.1.0, SVG Export Plug-In . SVG Version: 6.00 Build 0)  -->
<svg version="1.0" id="Layer_1" xmlns="http://www.w3.org/2000/svg" xmlns:xlink="http://www.w3.org/1999/xlink" x="0px" y="0px"
	 viewBox="0 0 87.6 142.2" style="enable-background:new 0 0 87.6 142.2;" xml:space="preserve">
<style type="text/css">
	.st0{fill:none;}
	.st1{clip-path:url(#SVGID_2_);fill:url(#SVGID_3_);}
	
		.st2{clip-path:url(#SVGID_2_);fill:none;stroke:#000000;stroke-width:0;stroke-linecap:round;stroke-linejoin:round;stroke-miterlimit:10;}
	.st3{clip-path:url(#SVGID_2_);fill:url(#SVGID_4_);}
	.st4{clip-path:url(#SVGID_2_);fill:url(#SVGID_5_);}
	.st5{clip-path:url(#SVGID_2_);fill:url(#SVGID_6_);}
	.st6{clip-path:url(#SVGID_2_);fill:url(#SVGID_7_);}
	.st7{clip-path:url(#SVGID_2_);fill:url(#SVGID_8_);}
	.st8{clip-path:url(#SVGID_2_);fill:url(#SVGID_9_);}
	.st9{clip-path:url(#SVGID_2_);fill:url(#SVGID_10_);}
	.st10{clip-path:url(#SVGID_2_);fill:url(#SVGID_11_);}
	.st11{clip-path:url(#SVGID_2_);fill:url(#SVGID_12_);}
	.st12{clip-path:url(#SVGID_2_);fill:url(#SVGID_13_);}
	.st13{clip-path:url(#SVGID_2_);fill:url(#SVGID_14_);}
	.st14{clip-path:url(#SVGID_2_);fill:url(#SVGID_15_);}
	.st15{clip-path:url(#SVGID_2_);fill:url(#SVGID_16_);}
	.st16{clip-path:url(#SVGID_2_);fill:url(#SVGID_17_);}
	.st17{clip-path:url(#SVGID_2_);fill:url(#SVGID_18_);}
	.st18{clip-path:url(#SVGID_2_);fill:url(#SVGID_19_);}
	.st19{clip-path:url(#SVGID_2_);fill:url(#SVGID_20_);}
	.st20{clip-path:url(#SVGID_2_);fill:url(#SVGID_21_);}
	.st21{clip-path:url(#SVGID_2_);fill:url(#SVGID_22_);}
	.st22{clip-path:url(#SVGID_2_);fill:url(#SVGID_23_);}
	.st23{clip-path:url(#SVGID_2_);fill:url(#SVGID_24_);}
	.st24{clip-path:url(#SVGID_2_);fill:url(#SVGID_25_);}
	.st25{clip-path:url(#SVGID_2_);fill:url(#SVGID_26_);}
</style>
<pattern  x="-262.2" y="467.1" width="64" height="64" patternUnits="userSpaceOnUse" id="Unnamed_Pattern" viewBox="0 -64 64 64" style="overflow:visible;">
	<g>
		<rect y="-64" class="st0" width="64" height="64"/>
		<rect y="-64" width="64" height="64"/>
	</g>
</pattern>
<pattern  x="-262.2" y="467.1" width="64" height="64" patternUnits="userSpaceOnUse" id="Unnamed_Pattern_10" viewBox="0 -64 64 64" style="overflow:visible;">
	<g>
		<rect y="-64" class="st0" width="64" height="64"/>
		<rect y="-64" width="64" height="64"/>
	</g>
</pattern>
<pattern  x="-262.2" y="467.1" width="64" height="64" patternUnits="userSpaceOnUse" id="Unnamed_Pattern_11" viewBox="0 -64 64 64" style="overflow:visible;">
	<g>
		<rect y="-64" class="st0" width="64" height="64"/>
		<rect y="-64" width="64" height="64"/>
	</g>
</pattern>
<pattern  x="-262.2" y="467.1" width="64" height="64" patternUnits="userSpaceOnUse" id="Unnamed_Pattern_12" viewBox="0 -64 64 64" style="overflow:visible;">
	<g>
		<rect y="-64" class="st0" width="64" height="64"/>
		<rect y="-64" width="64" height="64"/>
	</g>
</pattern>
<pattern  x="-262.2" y="467.1" width="64" height="64" patternUnits="userSpaceOnUse" id="Unnamed_Pattern_13" viewBox="0 -64 64 64" style="overflow:visible;">
	<g>
		<rect y="-64" class="st0" width="64" height="64"/>
		<rect y="-64" width="64" height="64"/>
	</g>
</pattern>
<pattern  x="-262.2" y="467.1" width="64" height="64" patternUnits="userSpaceOnUse" id="Unnamed_Pattern_14" viewBox="0 -64 64 64" style="overflow:visible;">
	<g>
		<rect y="-64" class="st0" width="64" height="64"/>
		<rect y="-64" width="64" height="64"/>
	</g>
</pattern>
<pattern  x="-262.2" y="467.1" width="64" height="64" patternUnits="userSpaceOnUse" id="Unnamed_Pattern_15" viewBox="0 -64 64 64" style="overflow:visible;">
	<g>
		<rect y="-64" class="st0" width="64" height="64"/>
		<rect y="-64" width="64" height="64"/>
	</g>
</pattern>
<pattern  x="-262.2" y="467.1" width="64" height="64" patternUnits="userSpaceOnUse" id="Unnamed_Pattern_16" viewBox="0 -64 64 64" style="overflow:visible;">
	<g>
		<rect y="-64" class="st0" width="64" height="64"/>
		<rect y="-64" width="64" height="64"/>
	</g>
</pattern>
<pattern  x="-262.2" y="467.1" width="64" height="64" patternUnits="userSpaceOnUse" id="Unnamed_Pattern_17" viewBox="0 -64 64 64" style="overflow:visible;">
	<g>
		<rect y="-64" class="st0" width="64" height="64"/>
		<rect y="-64" width="64" height="64"/>
	</g>
</pattern>
<pattern  x="-262.2" y="467.1" width="64" height="64" patternUnits="userSpaceOnUse" id="Unnamed_Pattern_18" viewBox="0 -64 64 64" style="overflow:visible;">
	<g>
		<rect y="-64" class="st0" width="64" height="64"/>
		<rect y="-64" width="64" height="64"/>
	</g>
</pattern>
<pattern  x="-262.2" y="467.1" width="64" height="64" patternUnits="userSpaceOnUse" id="Unnamed_Pattern_19" viewBox="0 -64 64 64" style="overflow:visible;">
	<g>
		<rect y="-64" class="st0" width="64" height="64"/>
		<rect y="-64" width="64" height="64"/>
	</g>
</pattern>
<pattern  x="-262.2" y="467.1" width="64" height="64" patternUnits="userSpaceOnUse" id="Unnamed_Pattern_2" viewBox="0 -64 64 64" style="overflow:visible;">
	<g>
		<rect y="-64" class="st0" width="64" height="64"/>
		<rect y="-64" width="64" height="64"/>
	</g>
</pattern>
<pattern  x="-262.2" y="467.1" width="64" height="64" patternUnits="userSpaceOnUse" id="Unnamed_Pattern_20" viewBox="0 -64 64 64" style="overflow:visible;">
	<g>
		<rect y="-64" class="st0" width="64" height="64"/>
		<rect y="-64" width="64" height="64"/>
	</g>
</pattern>
<pattern  x="-262.2" y="467.1" width="64" height="64" patternUnits="userSpaceOnUse" id="Unnamed_Pattern_21" viewBox="0 -64 64 64" style="overflow:visible;">
	<g>
		<rect y="-64" class="st0" width="64" height="64"/>
		<rect y="-64" width="64" height="64"/>
	</g>
</pattern>
<pattern  x="-262.2" y="467.1" width="64" height="64" patternUnits="userSpaceOnUse" id="Unnamed_Pattern_22" viewBox="0 -64 64 64" style="overflow:visible;">
	<g>
		<rect y="-64" class="st0" width="64" height="64"/>
		<rect y="-64" width="64" height="64"/>
	</g>
</pattern>
<pattern  x="-262.2" y="467.1" width="64" height="64" patternUnits="userSpaceOnUse" id="Unnamed_Pattern_23" viewBox="0 -64 64 64" style="overflow:visible;">
	<g>
		<rect y="-64" class="st0" width="64" height="64"/>
		<rect y="-64" width="64" height="64"/>
	</g>
</pattern>
<pattern  x="-262.2" y="467.1" width="64" height="64" patternUnits="userSpaceOnUse" id="Unnamed_Pattern_24" viewBox="0 -64 64 64" style="overflow:visible;">
	<g>
		<rect y="-64" class="st0" width="64" height="64"/>
		<rect y="-64" width="64" height="64"/>
	</g>
</pattern>
<pattern  x="-262.2" y="467.1" width="64" height="64" patternUnits="userSpaceOnUse" id="Unnamed_Pattern_3" viewBox="0 -64 64 64" style="overflow:visible;">
	<g>
		<rect y="-64" class="st0" width="64" height="64"/>
		<rect y="-64" width="64" height="64"/>
	</g>
</pattern>
<pattern  x="-262.2" y="467.1" width="64" height="64" patternUnits="userSpaceOnUse" id="Unnamed_Pattern_4" viewBox="0 -64 64 64" style="overflow:visible;">
	<g>
		<rect y="-64" class="st0" width="64" height="64"/>
		<rect y="-64" width="64" height="64"/>
	</g>
</pattern>
<pattern  x="-262.2" y="467.1" width="64" height="64" patternUnits="userSpaceOnUse" id="Unnamed_Pattern_5" viewBox="0 -64 64 64" style="overflow:visible;">
	<g>
		<rect y="-64" class="st0" width="64" height="64"/>
		<rect y="-64" width="64" height="64"/>
	</g>
</pattern>
<pattern  x="-262.2" y="467.1" width="64" height="64" patternUnits="userSpaceOnUse" id="Unnamed_Pattern_6" viewBox="0 -64 64 64" style="overflow:visible;">
	<g>
		<rect y="-64" class="st0" width="64" height="64"/>
		<rect y="-64" width="64" height="64"/>
	</g>
</pattern>
<pattern  x="-262.2" y="467.1" width="64" height="64" patternUnits="userSpaceOnUse" id="Unnamed_Pattern_7" viewBox="0 -64 64 64" style="overflow:visible;">
	<g>
		<rect y="-64" class="st0" width="64" height="64"/>
		<rect y="-64" width="64" height="64"/>
	</g>
</pattern>
<pattern  x="-262.2" y="467.1" width="64" height="64" patternUnits="userSpaceOnUse" id="Unnamed_Pattern_8" viewBox="0 -64 64 64" style="overflow:visible;">
	<g>
		<rect y="-64" class="st0" width="64" height="64"/>
		<rect y="-64" width="64" height="64"/>
	</g>
</pattern>
<pattern  x="-262.2" y="467.1" width="64" height="64" patternUnits="userSpaceOnUse" id="Unnamed_Pattern_9" viewBox="0 -64 64 64" style="overflow:visible;">
	<g>
		<rect y="-64" class="st0" width="64" height="64"/>
		<rect y="-64" width="64" height="64"/>
	</g>
</pattern>
<g>
	<g>
		<defs>
			<rect id="SVGID_1_" width="87.6" height="142.2"/>
		</defs>
		<clipPath id="SVGID_2_">
			<use xlink:href="#SVGID_1_"  style="overflow:visible;"/>
		</clipPath>
		
			<pattern  id="SVGID_3_" xlink:href="#Unnamed_Pattern" patternTransform="matrix(5.999999e-02 0 0 5.999999e-02 246.468 -1157.5662)">
		</pattern>
		<rect x="46.7" y="95.1" class="st1" width="3.4" height="2.3"/>
		<rect x="46.7" y="95.1" class="st2" width="3.4" height="2.3"/>
		
			<pattern  id="SVGID_4_" xlink:href="#Unnamed_Pattern_2" patternTransform="matrix(5.999999e-02 0 0 5.999999e-02 246.468 -1157.5662)">
		</pattern>
		<rect x="46.7" y="90" class="st3" width="3.4" height="2.3"/>
		<rect x="46.7" y="90" class="st2" width="3.4" height="2.3"/>
		
			<pattern  id="SVGID_5_" xlink:href="#Unnamed_Pattern_3" patternTransform="matrix(5.999999e-02 0 0 5.999999e-02 246.468 -1157.5662)">
		</pattern>
		<rect x="42.1" y="102.5" class="st4" width="2.3" height="3.4"/>
		<rect x="42.1" y="102.5" class="st2" width="2.3" height="3.4"/>
		
			<pattern  id="SVGID_6_" xlink:href="#Unnamed_Pattern_4" patternTransform="matrix(5.999999e-02 0 0 5.999999e-02 246.468 -1157.5662)">
		</pattern>
		<rect x="37" y="102.5" class="st5" width="2.3" height="3.4"/>
		<rect x="37" y="102.5" class="st2" width="2.3" height="3.4"/>
		
			<pattern  id="SVGID_7_" xlink:href="#Unnamed_Pattern_5" patternTransform="matrix(5.999999e-02 0 0 5.999999e-02 246.468 -1157.5662)">
		</pattern>
		<rect x="29.6" y="58" class="st6" width="6.2" height="1.4"/>
		<rect x="29.6" y="58" class="st2" width="6.2" height="1.4"/>
		
			<pattern  id="SVGID_8_" xlink:href="#Unnamed_Pattern_6" patternTransform="matrix(5.999999e-02 0 0 5.999999e-02 246.468 -1157.5662)">
		</pattern>
		<rect x="29.6" y="61.6" class="st7" width="6.2" height="1.4"/>
		<rect x="29.6" y="61.6" class="st2" width="6.2" height="1.4"/>
		
			<pattern  id="SVGID_9_" xlink:href="#Unnamed_Pattern_7" patternTransform="matrix(5.999999e-02 0 0 5.999999e-02 246.468 -1157.5662)">
		</pattern>
		<rect x="29.6" y="65.2" class="st8" width="6.2" height="1.4"/>
		<rect x="29.6" y="65.2" class="st2" width="6.2" height="1.4"/>
		
			<pattern  id="SVGID_10_" xlink:href="#Unnamed_Pattern_8" patternTransform="matrix(5.999999e-02 0 0 5.999999e-02 246.468 -1157.5662)">
		</pattern>
		<rect x="29.6" y="68.8" class="st9" width="6.2" height="1.4"/>
		<rect x="29.6" y="68.8" class="st2" width="6.2" height="1.4"/>
		
			<pattern  id="SVGID_11_" xlink:href="#Unnamed_Pattern_9" patternTransform="matrix(5.999999e-02 0 0 5.999999e-02 246.468 -1157.5662)">
		</pattern>
		<rect x="47.5" y="58" class="st10" width="6.2" height="1.4"/>
		<rect x="47.5" y="58" class="st2" width="6.2" height="1.4"/>
		
			<pattern  id="SVGID_12_" xlink:href="#Unnamed_Pattern_10" patternTransform="matrix(5.999999e-02 0 0 5.999999e-02 246.468 -1157.5662)">
		</pattern>
		<rect x="47.5" y="61.6" class="st11" width="6.2" height="1.4"/>
		<rect x="47.5" y="61.6" class="st2" width="6.2" height="1.4"/>
		
			<pattern  id="SVGID_13_" xlink:href="#Unnamed_Pattern_11" patternTransform="matrix(5.999999e-02 0 0 5.999999e-02 246.468 -1157.5662)">
		</pattern>
		<rect x="47.5" y="65.2" class="st12" width="6.2" height="1.4"/>
		<rect x="47.5" y="65.2" class="st2" width="6.2" height="1.4"/>
		
			<pattern  id="SVGID_14_" xlink:href="#Unnamed_Pattern_12" patternTransform="matrix(5.999999e-02 0 0 5.999999e-02 246.468 -1157.5662)">
		</pattern>
		<rect x="47.5" y="68.8" class="st13" width="6.2" height="1.4"/>
		<rect x="47.5" y="68.8" class="st2" width="6.2" height="1.4"/>
		
			<pattern  id="SVGID_15_" xlink:href="#Unnamed_Pattern_13" patternTransform="matrix(5.999999e-02 0 0 5.999999e-02 246.468 -1157.5662)">
		</pattern>
		<rect x="31.2" y="95.2" class="st14" width="3.4" height="2.3"/>
		<rect x="31.2" y="95.2" class="st2" width="3.4" height="2.3"/>
		
			<pattern  id="SVGID_16_" xlink:href="#Unnamed_Pattern_14" patternTransform="matrix(5.999999e-02 0 0 5.999999e-02 246.468 -1157.5662)">
		</pattern>
		<rect x="31.2" y="90.1" class="st15" width="3.4" height="2.3"/>
		<rect x="31.2" y="90.1" class="st2" width="3.4" height="2.3"/>
		
			<pattern  id="SVGID_17_" xlink:href="#Unnamed_Pattern_15" patternTransform="matrix(5.999999e-02 0 0 5.999999e-02 246.468 -1157.5662)">
		</pattern>
		<rect x="36.8" y="91.4" class="st16" width="2.3" height="1"/>
		<rect x="36.8" y="91.4" class="st2" width="2.3" height="1"/>
		
			<pattern  id="SVGID_18_" xlink:href="#Unnamed_Pattern_16" patternTransform="matrix(5.999999e-02 0 0 5.999999e-02 246.468 -1157.5662)">
		</pattern>
		<rect x="36.8" y="93.2" class="st17" width="2.3" height="1"/>
		<rect x="36.8" y="93.2" class="st2" width="2.3" height="1"/>
		
			<pattern  id="SVGID_19_" xlink:href="#Unnamed_Pattern_17" patternTransform="matrix(5.999999e-02 0 0 5.999999e-02 246.468 -1157.5662)">
		</pattern>
		<rect x="36.8" y="95" class="st18" width="2.3" height="1"/>
		<rect x="36.8" y="95" class="st2" width="2.3" height="1"/>
		
			<pattern  id="SVGID_20_" xlink:href="#Unnamed_Pattern_18" patternTransform="matrix(5.999999e-02 0 0 5.999999e-02 246.468 -1157.5662)">
		</pattern>
		<rect x="41.6" y="95" class="st19" width="2.3" height="1"/>
		<rect x="41.6" y="95" class="st2" width="2.3" height="1"/>
		
			<pattern  id="SVGID_21_" xlink:href="#Unnamed_Pattern_19" patternTransform="matrix(5.999999e-02 0 0 5.999999e-02 246.468 -1157.5662)">
		</pattern>
		<rect x="41.6" y="93.2" class="st20" width="2.3" height="1"/>
		<rect x="41.6" y="93.2" class="st2" width="2.3" height="1"/>
		
			<pattern  id="SVGID_22_" xlink:href="#Unnamed_Pattern_20" patternTransform="matrix(5.999999e-02 0 0 5.999999e-02 246.468 -1157.5662)">
		</pattern>
		<rect x="41.6" y="91.4" class="st21" width="2.3" height="1"/>
		<rect x="41.6" y="91.4" class="st2" width="2.3" height="1"/>
		
			<pattern  id="SVGID_23_" xlink:href="#Unnamed_Pattern_21" patternTransform="matrix(5.999999e-02 0 0 5.999999e-02 246.468 -1157.5662)">
		</pattern>
		<rect x="37" y="79.9" class="st22" width="2.9" height="5.6"/>
		<rect x="37" y="79.9" class="st2" width="2.9" height="5.6"/>
		
			<pattern  id="SVGID_24_" xlink:href="#Unnamed_Pattern_22" patternTransform="matrix(5.999999e-02 0 0 5.999999e-02 246.468 -1157.5662)">
		</pattern>
		<rect x="43.4" y="79.9" class="st23" width="2.9" height="5.6"/>
		<rect x="43.4" y="79.9" class="st2" width="2.9" height="5.6"/>
		
			<pattern  id="SVGID_25_" xlink:href="#Unnamed_Pattern_23" patternTransform="matrix(5.999999e-02 0 0 5.999999e-02 246.468 -1157.5662)">
		</pattern>
		<rect x="25.3" y="110.9" class="st24" width="7.2" height="14.4"/>
		<rect x="25.3" y="110.9" class="st2" width="7.2" height="14.4"/>
		
			<pattern  id="SVGID_26_" xlink:href="#Unnamed_Pattern_24" patternTransform="matrix(5.999999e-02 0 0 5.999999e-02 246.468 -1157.5662)">
		</pattern>
		<rect x="50.8" y="110.9" class="st25" width="7.2" height="14.4"/>
		<rect x="50.8" y="110.9" class="st2" width="7.2" height="14.4"/>
	</g>
</g>
</svg>
